<mxfile host="65bd71144e">
    <diagram id="a5DyARKQwSNHJmODPt4J" name="Page-1">
        <mxGraphModel dx="1601" dy="3859" grid="1" gridSize="10" guides="1" tooltips="1" connect="1" arrows="1" fold="1" page="1" pageScale="1" pageWidth="850" pageHeight="1100" math="0" shadow="0">
            <root>
                <mxCell id="0"/>
                <mxCell id="1" parent="0"/>
                <mxCell id="5" style="edgeStyle=none;html=1;fontFamily=Comic Sans MS;entryX=1.011;entryY=0.512;entryDx=0;entryDy=0;entryPerimeter=0;" parent="1" source="3" edge="1" target="6">
                    <mxGeometry relative="1" as="geometry">
                        <mxPoint x="-430" y="-2470" as="targetPoint"/>
                    </mxGeometry>
                </mxCell>
                <mxCell id="8" style="edgeStyle=none;html=1;exitX=0;exitY=0;exitDx=60;exitDy=0;exitPerimeter=0;fontFamily=Comic Sans MS;" edge="1" parent="1" source="3">
                    <mxGeometry relative="1" as="geometry">
                        <mxPoint x="-620" y="-2270" as="targetPoint"/>
                    </mxGeometry>
                </mxCell>
                <mxCell id="9" style="edgeStyle=none;html=1;exitX=0;exitY=0;exitDx=0;exitDy=0;exitPerimeter=0;fontFamily=Comic Sans MS;entryX=1;entryY=1;entryDx=0;entryDy=0;entryPerimeter=0;" edge="1" parent="1" source="3" target="11">
                    <mxGeometry relative="1" as="geometry">
                        <mxPoint x="-430" y="-2300" as="targetPoint"/>
                    </mxGeometry>
                </mxCell>
                <mxCell id="3" value="La anotación @SpringBootApplication es una anotación compuesta, lo que significa que engloba varias otras anotaciones esenciales para que funciones Spring Boot." style="shape=note;whiteSpace=wrap;html=1;backgroundOutline=1;fontColor=#000000;darkOpacity=0.05;fillColor=#FFF9B2;strokeColor=none;fillStyle=solid;direction=west;gradientDirection=north;gradientColor=#FFF2A1;shadow=1;size=20;pointerEvents=1;fontFamily=Comic Sans MS;" parent="1" vertex="1">
                    <mxGeometry x="-700" y="-2550" width="140" height="160" as="geometry"/>
                </mxCell>
                <mxCell id="6" value="1. @Configuration&lt;div&gt;Indica que esta clase contiene la configuracion para Spring, aqui inicia todo y equivale a un archivo de configuración en otros frameworks.&lt;/div&gt;" style="shape=note;whiteSpace=wrap;html=1;backgroundOutline=1;darkOpacity=0.05;fillColor=#ffe6cc;strokeColor=#d79b00;fillStyle=solid;direction=west;gradientDirection=north;shadow=1;size=20;pointerEvents=1;fontFamily=Comic Sans MS;" parent="1" vertex="1">
                    <mxGeometry x="-410" y="-2550" width="140" height="160" as="geometry"/>
                </mxCell>
                <mxCell id="7" value="2. @EnableAutoConfiguration&lt;div&gt;Activa la configuración automática de Spring Boot, analiza las dependencias y configura automáticamente beans, rutas, conexiones, etc.&lt;/div&gt;" style="shape=note;whiteSpace=wrap;html=1;backgroundOutline=1;darkOpacity=0.05;fillColor=#f8cecc;strokeColor=#b85450;fillStyle=solid;direction=west;gradientDirection=north;shadow=1;size=20;pointerEvents=1;fontFamily=Comic Sans MS;" vertex="1" parent="1">
                    <mxGeometry x="-700" y="-2280" width="180" height="160" as="geometry"/>
                </mxCell>
                <mxCell id="11" value="3. @ComponentScan&lt;div&gt;Le dice a Spring donde buscar los componentes (@Service, @Controller, @Repository, etc). Busca automaticamente en el mismo paquete y subpaquetes&lt;/div&gt;" style="shape=note;whiteSpace=wrap;html=1;backgroundOutline=1;darkOpacity=0.05;fillColor=#dae8fc;strokeColor=#6c8ebf;fillStyle=solid;direction=west;gradientDirection=north;shadow=1;size=20;pointerEvents=1;fontFamily=Comic Sans MS;" vertex="1" parent="1">
                    <mxGeometry x="-410" y="-2300" width="140" height="160" as="geometry"/>
                </mxCell>
                <mxCell id="13" value="Un @RestController es una clase que le dice a Spring: &quot;Oye, yo voy a manejar las peticiones HTTP que lleguen al servidor, y voy a responder directamente datos (no vistas HTML)&quot;" style="shape=note;whiteSpace=wrap;html=1;backgroundOutline=1;fontColor=#000000;darkOpacity=0.05;fillColor=#FFF9B2;strokeColor=none;fillStyle=solid;direction=west;gradientDirection=north;gradientColor=#FFF2A1;shadow=1;size=20;pointerEvents=1;fontFamily=Comic Sans MS;" vertex="1" parent="1">
                    <mxGeometry x="-700" y="-2040" width="190" height="160" as="geometry"/>
                </mxCell>
                <mxCell id="14" value="Se crea un paquete controller porque permite una mayor organizacion y escalabilidad del programa, así como una fácil navegación." style="shape=note;whiteSpace=wrap;html=1;backgroundOutline=1;fontColor=#ffffff;darkOpacity=0.05;fillColor=#008a00;strokeColor=#005700;fillStyle=solid;direction=west;gradientDirection=north;shadow=1;size=20;pointerEvents=1;fontFamily=Comic Sans MS;" vertex="1" parent="1">
                    <mxGeometry x="-400" y="-2040" width="140" height="160" as="geometry"/>
                </mxCell>
                <mxCell id="17" style="edgeStyle=none;html=1;entryX=1;entryY=0.5;entryDx=0;entryDy=0;entryPerimeter=0;" edge="1" parent="1" source="13" target="14">
                    <mxGeometry relative="1" as="geometry"/>
                </mxCell>
            </root>
        </mxGraphModel>
    </diagram>
</mxfile>